<?xml version="1.0" standalone="no"?>
<!DOCTYPE svg PUBLIC "-//W3C//DTD SVG 1.0//EN" "http://www.w3.org/TR/2001/REC-SVG-20010904/DTD/svg10.dtd">
<svg xmlns="http://www.w3.org/2000/svg" xmlns:xlink="http://www.w3.org/1999/xlink" id="body_1" width="1024" height="768">

<defs>
        <clipPath  id="1">

            <path clip-rule="evenodd" d="" />        </clipPath>
            <clipPath  id="2">

                <path clip-rule="evenodd" d="M93.66 83.84L60.329994 83.84L60.329994 60.260002L93.66 60.260002z" />            </clipPath>
        <clipPath  id="3">

            <path clip-rule="evenodd" d="" />        </clipPath>
            <clipPath  id="4">

                <path clip-rule="evenodd" d="M74.45 60.26L110.88 60.26L110.88 83.84L74.45 83.84z" />            </clipPath>
</defs>

<g transform="matrix(2.56 0 0 2.56 128 -0)">
    <path d="M0 0L300 0L300 300L0 300z" stroke="none" fill="#1D2937" fill-rule="nonzero" />
    <path d="M294.15997 148.25C 294.15997 187.2358 280.37643 220.51224 252.80933 248.07933C 225.24222 275.64645 191.96577 289.43 152.98 289.43C 113.99422 289.43 80.71777 275.64645 53.150665 248.07933C 25.583557 220.51224 11.800003 187.2358 11.800003 148.25C 11.800003 109.26422 25.583557 75.98778 53.150665 48.42067C 80.71777 20.853563 113.99422 7.0700073 152.98 7.0700073C 191.96577 7.0700073 225.24222 20.853563 252.80933 48.42067C 280.37643 75.98778 294.15997 109.26422 294.15997 148.25C 294.15997 149.89288 294.13132 151.53525 294.07397 153.17711" stroke="none" fill="#F5C84B" fill-rule="nonzero" />
    <path d="M289.74 148.25C 289.74 186.01524 276.38797 218.24988 249.68391 244.95392C 222.97986 271.658 190.74522 285.01 152.98 285.01C 115.21477 285.01 82.98013 271.658 56.276077 244.95392C 29.57203 218.24988 16.220001 186.01524 16.220001 148.25C 16.220001 110.48477 29.57203 78.25014 56.276077 51.54608C 82.98013 24.842031 115.21477 11.4900055 152.98 11.4900055C 190.74522 11.4900055 222.97986 24.842031 249.68391 51.54608C 276.38797 78.25014 289.74 110.48477 289.74 148.25C 289.74 149.84145 289.71222 151.4324 289.65668 153.02286" stroke="none" fill="#1D2937" fill-rule="nonzero" />
    <path d="M69.95 97.16C 69.95 93.28848 73.08848 90.15 76.96 90.15L76.96 90.15L89.409996 90.15C 93.28151 90.15 96.42 93.28848 96.42 97.16L96.42 97.16L96.42 232.54C 96.42 236.41151 93.28151 239.54999 89.409996 239.54999L89.409996 239.54999L76.96 239.54999C 73.08848 239.54999 69.95 236.41151 69.95 232.54L69.95 232.54L69.95 97.16z" stroke="none" fill="#667495" fill-rule="nonzero" />
    <path d="M75.74 60.46L93.96 60.46L93.96 83.64L75.74 83.64z" stroke="none" fill="#524888" fill-rule="nonzero" />
    <path transform="matrix(-1 8.742278E-08 -8.742278E-08 -1 135.67 144.09)"  d="M59.5 60.46L76.17 60.46L76.17 60.46L76.17 60.46L76.17 60.46L76.17 67C 76.15345 76.19487 68.694885 83.640015 59.5 83.64L59.5 83.64L59.5 83.64L59.5 83.64L59.5 60.46L59.5 60.46L59.5 60.46z" stroke="none" fill="#524888" fill-rule="nonzero" />
	<g clip-path="url(#1)" >
        <path transform="matrix(-1 8.742278E-08 -8.742278E-08 -1 153.99 144.09)"  d="M60.33 60.25L93.66 60.25L93.66 83.83L60.33 83.83z" stroke="none" fill="#524888" fill-rule="nonzero" />
		<g clip-path="url(#2)" >
            <path d="M60.33 83.43C 60.33 70.62804 67.79341 60.25 77 60.25C 86.20659 60.25 93.67 70.62804 93.67 83.43C 93.67 96.231964 86.20659 106.61 77 106.61C 67.79341 106.61 60.33 96.231964 60.33 83.43" stroke="none" fill="#524888" fill-rule="nonzero" />
		</g>
	</g>
    <path d="M93.57 60.46L111.79 60.46L111.79 60.46L111.79 60.46L111.79 60.46L111.79 65.46C 111.767944 75.50701 103.61703 83.64003 93.57 83.64L93.57 83.64L93.57 83.64L93.57 83.64L93.57 60.46L93.57 60.46L93.57 60.46z" stroke="none" fill="#524888" fill-rule="nonzero" />
	<g clip-path="url(#3)" >
        <path d="M74.45 60.26L110.88 60.26L110.88 83.84L74.45 83.84z" stroke="none" fill="#524888" fill-rule="nonzero" />
		<g clip-path="url(#4)" >
            <path d="M74.45 60.66C 74.45 47.85804 82.60737 37.48 92.67 37.48C 102.73263 37.48 110.89 47.85804 110.89 60.66C 110.89 73.46196 102.73263 83.84 92.67 83.84C 82.60737 83.84 74.45 73.46196 74.45 60.66" stroke="none" fill="#524888" fill-rule="nonzero" />
		</g>
	</g>
    <path d="M106.01 184.26L106.01 239.85L237.99 60.15L196.08 60.77L106.01 184.26L106.01 184.26" stroke="none" fill="#A8D5D8" fill-rule="nonzero" />
    <path d="M233.43 239.54L172 150L152.98 175.91L193.2 239.54L233.43 239.54L233.43 239.54" stroke="#A8D5D8" stroke-width="1" fill="#A8D5D8" fill-rule="nonzero" />
    <path d="M253.77 208.02L284.27002 208.02L284.27002 238.52L253.77 238.52z" stroke="none" fill="#1D2937" fill-rule="nonzero" />
    <path d="M244.98 237.59L275.47998 237.59L275.47998 268.09L244.98 268.09z" stroke="none" fill="#1D2937" fill-rule="nonzero" />
    <path d="M226.89 248.38L257.39 248.38L257.39 278.88L226.89 278.88z" stroke="none" fill="#1D2937" fill-rule="nonzero" />
    <path d="M177.95 261.24L208.45 261.24L208.45 291.74L177.95 291.74z" stroke="none" fill="#1D2937" fill-rule="nonzero" />
    <path d="M202.92 258.92L233.42 258.92L233.42 289.42L202.92 289.42z" stroke="none" fill="#1D2937" fill-rule="nonzero" />
    <path d="M260.23 189.51C 260.23 188.19003 261.30005 187.12 262.62003 187.12L262.62003 187.12L288.34 187.12C 289.65997 187.12 290.73 188.19003 290.73 189.51L290.73 189.51L290.73 215.23C 290.73 216.54996 289.65997 217.62 288.34 217.62L288.34 217.62L262.62003 217.62C 261.30005 217.62 260.23 216.54996 260.23 215.23L260.23 215.23L260.23 189.51z" stroke="none" fill="#1D2937" fill-rule="nonzero" />
	<text transform="matrix(1 0 0 1 183.98 275.91)" x="0" y="0" style="fill:#EFEFEF;font-family:ABeeZee;" font-size="23.66">
TopGeeky
	</text>
</g>
</svg>